<mxfile host="app.diagrams.net" modified="2023-08-11T00:49:47.901Z" agent="Mozilla/5.0 (Macintosh; Intel Mac OS X 10_15_7) AppleWebKit/537.36 (KHTML, like Gecko) Chrome/115.0.0.0 Safari/537.36" etag="6mrr65mw1EOximD-Uqr7" version="21.6.7" type="device">
  <diagram name="Page-1" id="3e8102d1-ef87-2e61-34e1-82d9a586fe2e">
    <mxGraphModel dx="883" dy="1523" grid="1" gridSize="10" guides="1" tooltips="1" connect="1" arrows="1" fold="1" page="1" pageScale="1" pageWidth="1100" pageHeight="850" background="none" math="1" shadow="0">
      <root>
        <mxCell id="0" />
        <mxCell id="1" parent="0" />
        <mxCell id="0viIdwtUsRMgSrC2qUE8-39" value="" style="group" vertex="1" connectable="0" parent="1">
          <mxGeometry x="60" y="-10" width="862.5" height="1070" as="geometry" />
        </mxCell>
        <mxCell id="0viIdwtUsRMgSrC2qUE8-8" value="" style="group" vertex="1" connectable="0" parent="0viIdwtUsRMgSrC2qUE8-39">
          <mxGeometry y="30" width="380" height="410" as="geometry" />
        </mxCell>
        <mxCell id="70666756c84bb93c-1" value="" style="ellipse;whiteSpace=wrap;html=1;rounded=0;shadow=0;comic=0;strokeWidth=1;fontFamily=Verdana;fontSize=14;strokeColor=none;fillColor=#0069D1;" parent="0viIdwtUsRMgSrC2qUE8-8" vertex="1">
          <mxGeometry width="380" height="410" as="geometry" />
        </mxCell>
        <mxCell id="70666756c84bb93c-2" value="Data&lt;br&gt;at time &lt;svg style=&quot;vertical-align: -0.375ex;&quot; xmlns:xlink=&quot;http://www.w3.org/1999/xlink&quot; viewBox=&quot;0 -677 1020.6 842.6&quot; role=&quot;img&quot; height=&quot;1.906ex&quot; width=&quot;2.309ex&quot; xmlns=&quot;http://www.w3.org/2000/svg&quot;&gt;&lt;defs&gt;&lt;path d=&quot;M40 437Q21 437 21 445Q21 450 37 501T71 602L88 651Q93 669 101 677H569H659Q691 677 697 676T704 667Q704 661 687 553T668 444Q668 437 649 437Q640 437 637 437T631 442L629 445Q629 451 635 490T641 551Q641 586 628 604T573 629Q568 630 515 631Q469 631 457 630T439 622Q438 621 368 343T298 60Q298 48 386 46Q418 46 427 45T436 36Q436 31 433 22Q429 4 424 1L422 0Q419 0 415 0Q410 0 363 1T228 2Q99 2 64 0H49Q43 6 43 9T45 27Q49 40 55 46H83H94Q174 46 189 55Q190 56 191 56Q196 59 201 76T241 233Q258 301 269 344Q339 619 339 625Q339 630 310 630H279Q212 630 191 624Q146 614 121 583T67 467Q60 445 57 441T43 437H40Z&quot; id=&quot;MJX-1-TEX-I-1D447&quot;&gt;&lt;/path&gt;&lt;path d=&quot;M96 585Q152 666 249 666Q297 666 345 640T423 548Q460 465 460 320Q460 165 417 83Q397 41 362 16T301 -15T250 -22Q224 -22 198 -16T137 16T82 83Q39 165 39 320Q39 494 96 585ZM321 597Q291 629 250 629Q208 629 178 597Q153 571 145 525T137 333Q137 175 145 125T181 46Q209 16 250 16Q290 16 318 46Q347 76 354 130T362 333Q362 478 354 524T321 597Z&quot; id=&quot;MJX-1-TEX-N-30&quot;&gt;&lt;/path&gt;&lt;/defs&gt;&lt;g transform=&quot;scale(1,-1)&quot; stroke-width=&quot;0&quot; fill=&quot;currentColor&quot; stroke=&quot;currentColor&quot;&gt;&lt;g data-mml-node=&quot;math&quot;&gt;&lt;g data-mml-node=&quot;msub&quot;&gt;&lt;g data-mml-node=&quot;mi&quot;&gt;&lt;use xlink:href=&quot;#MJX-1-TEX-I-1D447&quot; data-c=&quot;1D447&quot;&gt;&lt;/use&gt;&lt;/g&gt;&lt;g transform=&quot;translate(617,-150) scale(0.707)&quot; data-mml-node=&quot;mn&quot;&gt;&lt;use xlink:href=&quot;#MJX-1-TEX-N-30&quot; data-c=&quot;30&quot;&gt;&lt;/use&gt;&lt;/g&gt;&lt;/g&gt;&lt;/g&gt;&lt;/g&gt;&lt;/svg&gt;" style="ellipse;whiteSpace=wrap;html=1;rounded=0;shadow=0;comic=0;strokeWidth=1;fontFamily=Verdana;fontSize=22;strokeColor=none;fillColor=#ffffff;fontColor=#0069D1;fontStyle=1" parent="0viIdwtUsRMgSrC2qUE8-8" vertex="1">
          <mxGeometry x="91.2" y="98.4" width="197.60000000000002" height="213.2" as="geometry" />
        </mxCell>
        <mxCell id="70666756c84bb93c-5" value="Community" style="shadow=0;dashed=0;html=1;strokeColor=none;fillColor=#ffffff;labelPosition=center;verticalLabelPosition=bottom;verticalAlign=top;shape=mxgraph.office.users.users;rounded=0;comic=0;fontFamily=Verdana;fontSize=14;fontColor=#FFFFFF;" parent="0viIdwtUsRMgSrC2qUE8-8" vertex="1">
          <mxGeometry x="53.199999999999996" y="270.59999999999997" width="34.96000000000001" height="40.99999999999999" as="geometry" />
        </mxCell>
        <mxCell id="70666756c84bb93c-8" value="Database" style="shadow=0;dashed=0;html=1;strokeColor=none;fillColor=#ffffff;labelPosition=center;verticalLabelPosition=bottom;verticalAlign=top;shape=mxgraph.office.services.central_management_service;rounded=0;comic=0;fontFamily=Verdana;fontSize=14;fontColor=#FFFFFF;" parent="0viIdwtUsRMgSrC2qUE8-8" vertex="1">
          <mxGeometry x="28.12" y="166.46" width="38.760000000000005" height="44.28" as="geometry" />
        </mxCell>
        <mxCell id="70666756c84bb93c-11" value="Infrastructure" style="shadow=0;dashed=0;html=1;strokeColor=none;fillColor=#ffffff;labelPosition=center;verticalLabelPosition=bottom;verticalAlign=top;shape=mxgraph.office.concepts.on_premises;rounded=0;comic=0;fontFamily=Verdana;fontSize=14;fontColor=#FFFFFF;" parent="0viIdwtUsRMgSrC2qUE8-8" vertex="1">
          <mxGeometry x="91.2" y="32.8" width="25.840000000000003" height="45.1" as="geometry" />
        </mxCell>
        <mxCell id="0viIdwtUsRMgSrC2qUE8-4" value="&lt;h2 style=&quot;font-size: 16px;&quot;&gt;&lt;font style=&quot;font-size: 16px;&quot;&gt;$$App_0$$&lt;/font&gt;&lt;/h2&gt;&lt;div style=&quot;font-size: 16px;&quot;&gt;&lt;br&gt;&lt;/div&gt;" style="sketch=0;outlineConnect=0;fontColor=#232F3E;gradientColor=none;fillColor=#232F3D;strokeColor=none;dashed=0;verticalLabelPosition=bottom;verticalAlign=top;align=center;html=1;fontSize=12;fontStyle=0;aspect=fixed;pointerEvents=1;shape=mxgraph.aws4.generic_application;" vertex="1" parent="0viIdwtUsRMgSrC2qUE8-8">
          <mxGeometry x="190" y="311.6" width="39.753846153846155" height="39.753846153846155" as="geometry" />
        </mxCell>
        <mxCell id="0viIdwtUsRMgSrC2qUE8-5" value="&lt;h2 style=&quot;font-size: 16px;&quot;&gt;&lt;font style=&quot;font-size: 16px;&quot;&gt;$$App_1$$&lt;/font&gt;&lt;/h2&gt;&lt;div style=&quot;font-size: 16px;&quot;&gt;&lt;br&gt;&lt;/div&gt;" style="sketch=0;outlineConnect=0;fontColor=#232F3E;gradientColor=none;fillColor=#232F3D;strokeColor=none;dashed=0;verticalLabelPosition=bottom;verticalAlign=top;align=center;html=1;fontSize=12;fontStyle=0;aspect=fixed;pointerEvents=1;shape=mxgraph.aws4.generic_application;" vertex="1" parent="0viIdwtUsRMgSrC2qUE8-8">
          <mxGeometry x="288.79999999999995" y="246" width="39.753846153846155" height="39.753846153846155" as="geometry" />
        </mxCell>
        <mxCell id="0viIdwtUsRMgSrC2qUE8-6" value="&lt;h2 style=&quot;font-size: 16px;&quot;&gt;&lt;font style=&quot;font-size: 16px;&quot;&gt;$$App_n$$&lt;/font&gt;&lt;/h2&gt;&lt;div style=&quot;font-size: 16px;&quot;&gt;&lt;br&gt;&lt;/div&gt;" style="sketch=0;outlineConnect=0;fontColor=#232F3E;gradientColor=none;fillColor=#232F3D;strokeColor=none;dashed=0;verticalLabelPosition=bottom;verticalAlign=top;align=center;html=1;fontSize=12;fontStyle=0;aspect=fixed;pointerEvents=1;shape=mxgraph.aws4.generic_application;" vertex="1" parent="0viIdwtUsRMgSrC2qUE8-8">
          <mxGeometry x="304" y="131.2" width="39.753846153846155" height="39.753846153846155" as="geometry" />
        </mxCell>
        <mxCell id="0viIdwtUsRMgSrC2qUE8-7" value="" style="sketch=0;html=1;dashed=0;whitespace=wrap;fillColor=#2875E2;strokeColor=#ffffff;points=[[0.005,0.63,0],[0.1,0.2,0],[0.9,0.2,0],[0.5,0,0],[0.995,0.63,0],[0.72,0.99,0],[0.5,1,0],[0.28,0.99,0]];verticalLabelPosition=bottom;align=center;verticalAlign=top;shape=mxgraph.kubernetes.icon;prIcon=api" vertex="1" parent="0viIdwtUsRMgSrC2qUE8-8">
          <mxGeometry x="228" y="35.669999999999995" width="38" height="39.36" as="geometry" />
        </mxCell>
        <mxCell id="0viIdwtUsRMgSrC2qUE8-9" value="" style="group" vertex="1" connectable="0" parent="0viIdwtUsRMgSrC2qUE8-39">
          <mxGeometry x="460" y="10" width="380" height="410" as="geometry" />
        </mxCell>
        <mxCell id="0viIdwtUsRMgSrC2qUE8-10" value="" style="ellipse;whiteSpace=wrap;html=1;rounded=0;shadow=0;comic=0;strokeWidth=1;fontFamily=Verdana;fontSize=14;strokeColor=none;fillColor=#0069D1;" vertex="1" parent="0viIdwtUsRMgSrC2qUE8-9">
          <mxGeometry width="380" height="410" as="geometry" />
        </mxCell>
        <mxCell id="0viIdwtUsRMgSrC2qUE8-11" value="Data &lt;br&gt;at time $$T_1$$" style="ellipse;whiteSpace=wrap;html=1;rounded=0;shadow=0;comic=0;strokeWidth=1;fontFamily=Verdana;fontSize=22;strokeColor=none;fillColor=#ffffff;fontColor=#0069D1;fontStyle=1" vertex="1" parent="0viIdwtUsRMgSrC2qUE8-9">
          <mxGeometry x="91.2" y="98.4" width="197.60000000000002" height="213.2" as="geometry" />
        </mxCell>
        <mxCell id="0viIdwtUsRMgSrC2qUE8-12" value="Community" style="shadow=0;dashed=0;html=1;strokeColor=none;fillColor=#ffffff;labelPosition=center;verticalLabelPosition=bottom;verticalAlign=top;shape=mxgraph.office.users.users;rounded=0;comic=0;fontFamily=Verdana;fontSize=14;fontColor=#FFFFFF;" vertex="1" parent="0viIdwtUsRMgSrC2qUE8-9">
          <mxGeometry x="53.199999999999996" y="270.59999999999997" width="34.96000000000001" height="40.99999999999999" as="geometry" />
        </mxCell>
        <mxCell id="0viIdwtUsRMgSrC2qUE8-13" value="Database" style="shadow=0;dashed=0;html=1;strokeColor=none;fillColor=#ffffff;labelPosition=center;verticalLabelPosition=bottom;verticalAlign=top;shape=mxgraph.office.services.central_management_service;rounded=0;comic=0;fontFamily=Verdana;fontSize=14;fontColor=#FFFFFF;" vertex="1" parent="0viIdwtUsRMgSrC2qUE8-9">
          <mxGeometry x="28.12" y="166.46" width="38.760000000000005" height="44.28" as="geometry" />
        </mxCell>
        <mxCell id="0viIdwtUsRMgSrC2qUE8-14" value="Infrastructure" style="shadow=0;dashed=0;html=1;strokeColor=none;fillColor=#ffffff;labelPosition=center;verticalLabelPosition=bottom;verticalAlign=top;shape=mxgraph.office.concepts.on_premises;rounded=0;comic=0;fontFamily=Verdana;fontSize=14;fontColor=#FFFFFF;" vertex="1" parent="0viIdwtUsRMgSrC2qUE8-9">
          <mxGeometry x="91.2" y="32.8" width="25.840000000000003" height="45.1" as="geometry" />
        </mxCell>
        <mxCell id="0viIdwtUsRMgSrC2qUE8-15" value="&lt;h2 style=&quot;font-size: 16px;&quot;&gt;&lt;font style=&quot;font-size: 16px;&quot;&gt;$$App_0$$&lt;/font&gt;&lt;/h2&gt;&lt;div style=&quot;font-size: 16px;&quot;&gt;&lt;br&gt;&lt;/div&gt;" style="sketch=0;outlineConnect=0;fontColor=#232F3E;gradientColor=none;fillColor=#232F3D;strokeColor=none;dashed=0;verticalLabelPosition=bottom;verticalAlign=top;align=center;html=1;fontSize=12;fontStyle=0;aspect=fixed;pointerEvents=1;shape=mxgraph.aws4.generic_application;" vertex="1" parent="0viIdwtUsRMgSrC2qUE8-9">
          <mxGeometry x="190" y="311.6" width="39.753846153846155" height="39.753846153846155" as="geometry" />
        </mxCell>
        <mxCell id="0viIdwtUsRMgSrC2qUE8-16" value="&lt;h2 style=&quot;font-size: 16px;&quot;&gt;&lt;font style=&quot;font-size: 16px;&quot;&gt;$$App_1$$&lt;/font&gt;&lt;/h2&gt;&lt;div style=&quot;font-size: 16px;&quot;&gt;&lt;br&gt;&lt;/div&gt;" style="sketch=0;outlineConnect=0;fontColor=#232F3E;gradientColor=none;fillColor=#232F3D;strokeColor=none;dashed=0;verticalLabelPosition=bottom;verticalAlign=top;align=center;html=1;fontSize=12;fontStyle=0;aspect=fixed;pointerEvents=1;shape=mxgraph.aws4.generic_application;" vertex="1" parent="0viIdwtUsRMgSrC2qUE8-9">
          <mxGeometry x="288.79999999999995" y="246" width="39.753846153846155" height="39.753846153846155" as="geometry" />
        </mxCell>
        <mxCell id="0viIdwtUsRMgSrC2qUE8-17" value="&lt;h2 style=&quot;font-size: 16px;&quot;&gt;&lt;font style=&quot;font-size: 16px;&quot;&gt;$$App_n$$&lt;/font&gt;&lt;/h2&gt;&lt;div style=&quot;font-size: 16px;&quot;&gt;&lt;br&gt;&lt;/div&gt;" style="sketch=0;outlineConnect=0;fontColor=#232F3E;gradientColor=none;fillColor=#232F3D;strokeColor=none;dashed=0;verticalLabelPosition=bottom;verticalAlign=top;align=center;html=1;fontSize=12;fontStyle=0;aspect=fixed;pointerEvents=1;shape=mxgraph.aws4.generic_application;" vertex="1" parent="0viIdwtUsRMgSrC2qUE8-9">
          <mxGeometry x="304" y="131.2" width="39.753846153846155" height="39.753846153846155" as="geometry" />
        </mxCell>
        <mxCell id="0viIdwtUsRMgSrC2qUE8-18" value="" style="sketch=0;html=1;dashed=0;whitespace=wrap;fillColor=#2875E2;strokeColor=#ffffff;points=[[0.005,0.63,0],[0.1,0.2,0],[0.9,0.2,0],[0.5,0,0],[0.995,0.63,0],[0.72,0.99,0],[0.5,1,0],[0.28,0.99,0]];verticalLabelPosition=bottom;align=center;verticalAlign=top;shape=mxgraph.kubernetes.icon;prIcon=api" vertex="1" parent="0viIdwtUsRMgSrC2qUE8-9">
          <mxGeometry x="228" y="35.669999999999995" width="38" height="39.36" as="geometry" />
        </mxCell>
        <mxCell id="0viIdwtUsRMgSrC2qUE8-19" value="" style="group" vertex="1" connectable="0" parent="0viIdwtUsRMgSrC2qUE8-39">
          <mxGeometry x="482.5" y="570" width="380" height="410" as="geometry" />
        </mxCell>
        <mxCell id="0viIdwtUsRMgSrC2qUE8-20" value="" style="ellipse;whiteSpace=wrap;html=1;rounded=0;shadow=0;comic=0;strokeWidth=1;fontFamily=Verdana;fontSize=14;strokeColor=none;fillColor=#0069D1;" vertex="1" parent="0viIdwtUsRMgSrC2qUE8-19">
          <mxGeometry width="380" height="410" as="geometry" />
        </mxCell>
        <mxCell id="0viIdwtUsRMgSrC2qUE8-21" value="Data &lt;br&gt;at time $$T_2$$" style="ellipse;whiteSpace=wrap;html=1;rounded=0;shadow=0;comic=0;strokeWidth=1;fontFamily=Verdana;fontSize=22;strokeColor=none;fillColor=#ffffff;fontColor=#0069D1;fontStyle=1" vertex="1" parent="0viIdwtUsRMgSrC2qUE8-19">
          <mxGeometry x="91.2" y="98.4" width="197.60000000000002" height="213.2" as="geometry" />
        </mxCell>
        <mxCell id="0viIdwtUsRMgSrC2qUE8-22" value="Community" style="shadow=0;dashed=0;html=1;strokeColor=none;fillColor=#ffffff;labelPosition=center;verticalLabelPosition=bottom;verticalAlign=top;shape=mxgraph.office.users.users;rounded=0;comic=0;fontFamily=Verdana;fontSize=14;fontColor=#FFFFFF;" vertex="1" parent="0viIdwtUsRMgSrC2qUE8-19">
          <mxGeometry x="53.199999999999996" y="270.59999999999997" width="34.96000000000001" height="40.99999999999999" as="geometry" />
        </mxCell>
        <mxCell id="0viIdwtUsRMgSrC2qUE8-23" value="Database" style="shadow=0;dashed=0;html=1;strokeColor=none;fillColor=#ffffff;labelPosition=center;verticalLabelPosition=bottom;verticalAlign=top;shape=mxgraph.office.services.central_management_service;rounded=0;comic=0;fontFamily=Verdana;fontSize=14;fontColor=#FFFFFF;" vertex="1" parent="0viIdwtUsRMgSrC2qUE8-19">
          <mxGeometry x="28.12" y="166.46" width="38.760000000000005" height="44.28" as="geometry" />
        </mxCell>
        <mxCell id="0viIdwtUsRMgSrC2qUE8-24" value="Infrastructure" style="shadow=0;dashed=0;html=1;strokeColor=none;fillColor=#ffffff;labelPosition=center;verticalLabelPosition=bottom;verticalAlign=top;shape=mxgraph.office.concepts.on_premises;rounded=0;comic=0;fontFamily=Verdana;fontSize=14;fontColor=#FFFFFF;" vertex="1" parent="0viIdwtUsRMgSrC2qUE8-19">
          <mxGeometry x="91.2" y="32.8" width="25.840000000000003" height="45.1" as="geometry" />
        </mxCell>
        <mxCell id="0viIdwtUsRMgSrC2qUE8-25" value="&lt;h2 style=&quot;font-size: 16px;&quot;&gt;&lt;font style=&quot;font-size: 16px;&quot;&gt;$$App_0$$&lt;/font&gt;&lt;/h2&gt;&lt;div style=&quot;font-size: 16px;&quot;&gt;&lt;br&gt;&lt;/div&gt;" style="sketch=0;outlineConnect=0;fontColor=#232F3E;gradientColor=none;fillColor=#232F3D;strokeColor=none;dashed=0;verticalLabelPosition=bottom;verticalAlign=top;align=center;html=1;fontSize=12;fontStyle=0;aspect=fixed;pointerEvents=1;shape=mxgraph.aws4.generic_application;" vertex="1" parent="0viIdwtUsRMgSrC2qUE8-19">
          <mxGeometry x="190" y="311.6" width="39.753846153846155" height="39.753846153846155" as="geometry" />
        </mxCell>
        <mxCell id="0viIdwtUsRMgSrC2qUE8-26" value="&lt;h2 style=&quot;font-size: 16px;&quot;&gt;&lt;font style=&quot;font-size: 16px;&quot;&gt;$$App_1$$&lt;/font&gt;&lt;/h2&gt;&lt;div style=&quot;font-size: 16px;&quot;&gt;&lt;br&gt;&lt;/div&gt;" style="sketch=0;outlineConnect=0;fontColor=#232F3E;gradientColor=none;fillColor=#232F3D;strokeColor=none;dashed=0;verticalLabelPosition=bottom;verticalAlign=top;align=center;html=1;fontSize=12;fontStyle=0;aspect=fixed;pointerEvents=1;shape=mxgraph.aws4.generic_application;" vertex="1" parent="0viIdwtUsRMgSrC2qUE8-19">
          <mxGeometry x="288.79999999999995" y="246" width="39.753846153846155" height="39.753846153846155" as="geometry" />
        </mxCell>
        <mxCell id="0viIdwtUsRMgSrC2qUE8-27" value="&lt;h2 style=&quot;font-size: 16px;&quot;&gt;&lt;font style=&quot;font-size: 16px;&quot;&gt;$$App_n$$&lt;/font&gt;&lt;/h2&gt;&lt;div style=&quot;font-size: 16px;&quot;&gt;&lt;br&gt;&lt;/div&gt;" style="sketch=0;outlineConnect=0;fontColor=#232F3E;gradientColor=none;fillColor=#232F3D;strokeColor=none;dashed=0;verticalLabelPosition=bottom;verticalAlign=top;align=center;html=1;fontSize=12;fontStyle=0;aspect=fixed;pointerEvents=1;shape=mxgraph.aws4.generic_application;" vertex="1" parent="0viIdwtUsRMgSrC2qUE8-19">
          <mxGeometry x="304" y="131.2" width="39.753846153846155" height="39.753846153846155" as="geometry" />
        </mxCell>
        <mxCell id="0viIdwtUsRMgSrC2qUE8-28" value="" style="sketch=0;html=1;dashed=0;whitespace=wrap;fillColor=#2875E2;strokeColor=#ffffff;points=[[0.005,0.63,0],[0.1,0.2,0],[0.9,0.2,0],[0.5,0,0],[0.995,0.63,0],[0.72,0.99,0],[0.5,1,0],[0.28,0.99,0]];verticalLabelPosition=bottom;align=center;verticalAlign=top;shape=mxgraph.kubernetes.icon;prIcon=api" vertex="1" parent="0viIdwtUsRMgSrC2qUE8-19">
          <mxGeometry x="228" y="35.669999999999995" width="38" height="39.36" as="geometry" />
        </mxCell>
        <mxCell id="0viIdwtUsRMgSrC2qUE8-30" value="" style="image;sketch=0;aspect=fixed;html=1;points=[];align=center;fontSize=12;image=img/lib/mscae/Input.svg;" vertex="1" parent="0viIdwtUsRMgSrC2qUE8-39">
          <mxGeometry x="400" y="180.95" width="50" height="45" as="geometry" />
        </mxCell>
        <mxCell id="0viIdwtUsRMgSrC2qUE8-31" value="" style="image;sketch=0;aspect=fixed;html=1;points=[];align=center;fontSize=12;image=img/lib/mscae/Input.svg;direction=south;" vertex="1" parent="0viIdwtUsRMgSrC2qUE8-39">
          <mxGeometry x="650" y="450" width="45" height="50" as="geometry" />
        </mxCell>
        <mxCell id="0viIdwtUsRMgSrC2qUE8-32" value="" style="image;sketch=0;aspect=fixed;html=1;points=[];align=center;fontSize=12;image=img/lib/mscae/Input.svg;direction=south;" vertex="1" parent="0viIdwtUsRMgSrC2qUE8-39">
          <mxGeometry x="650" y="1020" width="45" height="50" as="geometry" />
        </mxCell>
        <mxCell id="0viIdwtUsRMgSrC2qUE8-33" value="Text" style="text;html=1;strokeColor=none;fillColor=none;align=center;verticalAlign=middle;whiteSpace=wrap;rounded=0;" vertex="1" parent="0viIdwtUsRMgSrC2qUE8-39">
          <mxGeometry x="630" y="350" width="60" height="30" as="geometry" />
        </mxCell>
        <mxCell id="0viIdwtUsRMgSrC2qUE8-36" value="&lt;h2&gt;&lt;font size=&quot;1&quot;&gt;data change&lt;/font&gt;&lt;/h2&gt;&lt;div&gt;&lt;font size=&quot;1&quot;&gt;&lt;br&gt;&lt;/font&gt;&lt;/div&gt;" style="outlineConnect=0;dashed=0;verticalLabelPosition=bottom;verticalAlign=top;align=center;html=1;shape=mxgraph.aws3.event_time_based;fillColor=#759C3E;gradientColor=none;" vertex="1" parent="0viIdwtUsRMgSrC2qUE8-39">
          <mxGeometry x="387" width="63" height="82.5" as="geometry" />
        </mxCell>
        <mxCell id="0viIdwtUsRMgSrC2qUE8-38" value="&lt;h2&gt;&lt;font size=&quot;1&quot;&gt;data change&lt;/font&gt;&lt;/h2&gt;&lt;div&gt;&lt;font size=&quot;1&quot;&gt;&lt;br&gt;&lt;/font&gt;&lt;/div&gt;" style="outlineConnect=0;dashed=0;verticalLabelPosition=bottom;verticalAlign=top;align=center;html=1;shape=mxgraph.aws3.event_time_based;fillColor=#759C3E;gradientColor=none;" vertex="1" parent="0viIdwtUsRMgSrC2qUE8-39">
          <mxGeometry x="790" y="420" width="63" height="82.5" as="geometry" />
        </mxCell>
      </root>
    </mxGraphModel>
  </diagram>
</mxfile>
